<?xml version="1.0" encoding="UTF-8" standalone="no"?>
<!-- Created with Inkscape (http://www.inkscape.org/) -->

<svg
   xmlns:dc="http://purl.org/dc/elements/1.1/"
   xmlns:cc="http://creativecommons.org/ns#"
   xmlns:rdf="http://www.w3.org/1999/02/22-rdf-syntax-ns#"
   xmlns:svg="http://www.w3.org/2000/svg"
   xmlns="http://www.w3.org/2000/svg"
   xmlns:sodipodi="http://sodipodi.sourceforge.net/DTD/sodipodi-0.dtd"
   xmlns:inkscape="http://www.inkscape.org/namespaces/inkscape"
   width="99.517166mm"
   height="20.81076mm"
   viewBox="0 0 352.61988 73.738914"
   id="svg22642"
   version="1.1"
   inkscape:version="0.91 r13725"
   sodipodi:docname="dribyte_white.svg">
  <defs
     id="defs22644" />
  <sodipodi:namedview
     id="base"
     pagecolor="#ffffff"
     bordercolor="#666666"
     borderopacity="1.0"
     inkscape:pageopacity="0"
     inkscape:pageshadow="2"
     inkscape:zoom="2.8"
     inkscape:cx="32.235652"
     inkscape:cy="3.6422392"
     inkscape:document-units="px"
     inkscape:current-layer="g27217"
     showgrid="false"
     fit-margin-top="0"
     fit-margin-left="0"
     fit-margin-right="0"
     fit-margin-bottom="0"
     inkscape:window-width="1366"
     inkscape:window-height="709"
     inkscape:window-x="0"
     inkscape:window-y="27"
     inkscape:window-maximized="1" />
  <metadata
     id="metadata22647">
    <rdf:RDF>
      <cc:Work
         rdf:about="">
        <dc:format>image/svg+xml</dc:format>
        <dc:type
           rdf:resource="http://purl.org/dc/dcmitype/StillImage" />
        <dc:title></dc:title>
      </cc:Work>
    </rdf:RDF>
  </metadata>
  <g
     inkscape:label="Layer 1"
     inkscape:groupmode="layer"
     id="layer1"
     transform="translate(-140.83292,-66.921321)">
    <g
       transform="matrix(0.23953631,0,0,0.23953631,-22.477194,-5.0795758)"
       id="g27217">
      <g
         transform="matrix(10.908392,0,0,10.908392,-2505.7241,-10662.271)"
         style="font-style:normal;font-weight:normal;font-size:38.18418121px;line-height:125%;font-family:sans-serif;letter-spacing:0px;word-spacing:0px;fill:#ffffff;fill-opacity:1;stroke:none;stroke-width:1px;stroke-linecap:butt;stroke-linejoin:miter;stroke-opacity:1"
         id="g27219">
        <path
           inkscape:connector-curvature="0"
           d="m 341.05598,1010.2445 q 0,-0.9164 -0.38184,-1.2983 -0.38184,-0.42 -1.03098,-0.42 l -1.79465,0 0,21.1541 1.79465,0 q 0.64914,0 1.03098,-0.3819 0.38184,-0.42 0.38184,-1.3364 l 0,-17.7175 z m -1.03097,-4.2002 q 3.70386,0 3.70386,3.742 l 0,18.5957 q 0,3.7802 -3.70386,3.7802 l -4.81121,0 0,-26.1179 4.81121,0 0,0 z"
           style="font-style:normal;font-variant:normal;font-weight:normal;font-stretch:normal;font-family:Ailerons;-inkscape-font-specification:Ailerons;fill:#ffffff;fill-opacity:1"
           id="path27221" />
        <path
           inkscape:connector-curvature="0"
           d="m 355.33567,1018.4541 q 0.57276,0 0.99279,-0.3055 0.42002,-0.3436 0.42002,-1.2219 l 0,-6.8731 q 0,-0.7637 -0.42002,-1.031 -0.42003,-0.3055 -0.99279,-0.3055 l -1.41282,0 0,9.737 1.41282,0 0,0 z m 4.12389,13.7081 -2.71108,0 0,-9.546 q 0,-0.9928 -0.42002,-1.3365 -0.42003,-0.3436 -0.99279,-0.3436 l -1.41282,0 0,11.2261 -2.67289,0 0,-26.1179 4.88758,0 q 0.68731,0 1.29826,0.2672 0.61095,0.2291 1.03097,0.6874 0.45821,0.42 0.7255,1.0309 0.26729,0.5728 0.26729,1.2601 l 0,8.0951 q 0,0.7636 -0.19092,1.2218 -0.15274,0.4583 -0.34366,0.6874 -0.2291,0.2673 -0.49639,0.3818 0.26729,0.1527 0.49639,0.4964 0.19092,0.3055 0.34366,0.8019 0.19092,0.4582 0.19092,1.1837 l 0,10.0042 z"
           style="font-style:normal;font-variant:normal;font-weight:normal;font-stretch:normal;font-family:Ailerons;-inkscape-font-specification:Ailerons;fill:#ffffff;fill-opacity:1"
           id="path27223" />
        <path
           inkscape:connector-curvature="0"
           d="m 368.5462,1006.0443 q 0.61095,0 0.84005,0.3818 0.22911,0.3437 0.22911,0.6491 l 0,25.087 -1.90921,0 q -0.45821,0 -0.61095,-0.1909 -0.11455,-0.1909 -0.15273,-0.3818 l 0,-25.5452 1.60373,0 0,0 z"
           style="font-style:normal;font-variant:normal;font-weight:normal;font-stretch:normal;font-family:Ailerons;-inkscape-font-specification:Ailerons;fill:#ffffff;fill-opacity:1"
           id="path27225" />
        <path
           inkscape:connector-curvature="0"
           d="m 382.70179,1010.0536 q 0,-0.7637 -0.42002,-1.031 -0.42003,-0.3055 -0.99279,-0.3055 l -1.41281,0 0,9.1642 1.41281,0 q 0.57276,0 0.99279,-0.3054 0.42002,-0.3437 0.42002,-1.2219 l 0,-6.3004 z m 0,11.7989 q 0,-0.8782 -0.42002,-1.1837 -0.42003,-0.3437 -0.99279,-0.3437 l -1.41281,0 0,9.1642 1.41281,0 q 0.57276,0 0.99279,-0.2673 0.42002,-0.3054 0.42002,-1.0691 l 0,-6.3004 z m 1.18371,-2.7493 q 0.42003,0.1528 0.76369,0.4583 0.30547,0.2672 0.53458,0.6873 0.2291,0.3818 0.2291,0.9928 l 0,7.6368 q 0,1.3746 -0.99279,2.3292 -0.9546,0.9546 -2.32923,0.9546 l -4.88758,0 0,-12.9826 0,-0.076 0,-0.038 0,-0.038 0,-12.9826 4.88758,0 q 0.68731,0 1.29826,0.2672 0.61095,0.2291 1.03097,0.6874 0.45821,0.42 0.7255,1.0309 0.26729,0.5728 0.26729,1.2601 l 0,7.675 q 0,0.6492 -0.2291,1.031 -0.22911,0.3818 -0.53458,0.6491 -0.34366,0.3055 -0.76369,0.4582 z"
           style="font-style:normal;font-variant:normal;font-weight:normal;font-stretch:normal;font-family:Ailerons;-inkscape-font-specification:Ailerons;fill:#ffffff;fill-opacity:1"
           id="path27227" />
        <path
           inkscape:connector-curvature="0"
           d="m 400.05949,1006.0443 -3.20747,15.2354 0,10.8825 -1.87103,0 q -0.34366,0 -0.57276,-0.2291 -0.22911,-0.2291 -0.22911,-0.5346 l 0,-10.1188 -3.20747,-15.2354 1.94739,0 q 0.0764,0 0.42003,0.1145 0.34366,0.1146 0.45821,0.7637 l 1.71829,9.9279 1.71829,-9.9279 q 0.0764,-0.611 0.42002,-0.7255 0.34366,-0.1527 0.42003,-0.1527 l 1.98558,0 z"
           style="font-style:normal;font-variant:normal;font-weight:normal;font-stretch:normal;font-family:Ailerons;-inkscape-font-specification:Ailerons;fill:#ffffff;fill-opacity:1"
           id="path27229" />
        <path
           inkscape:connector-curvature="0"
           d="m 414.66493,1006.0443 q -0.2291,0.4963 -0.53457,1.1455 -0.26729,0.6109 -0.34366,0.7637 -0.11455,0.2672 -0.45821,0.4964 -0.30548,0.2291 -0.95461,0.2291 l -2.10013,0 q -0.30547,0 -0.49639,0.1909 -0.15274,0.1909 -0.15274,0.4582 l 0,22.8341 -2.06194,0 q -0.45821,0 -0.61095,-0.1909 -0.11455,-0.2291 -0.15274,-0.3818 l 0,-22.9105 -3.74205,0 0,-1.8329 q 0,-0.3436 0.22911,-0.5727 0.2291,-0.2291 0.57276,-0.2291 l 10.80612,0 z"
           style="font-style:normal;font-variant:normal;font-weight:normal;font-stretch:normal;font-family:Ailerons;-inkscape-font-specification:Ailerons;fill:#ffffff;fill-opacity:1"
           id="path27231" />
        <path
           inkscape:connector-curvature="0"
           d="m 421.33583,1029.4893 5.61308,0 q 0.26729,0 0.19092,0.3055 -0.0764,0.2673 -0.30547,0.6491 -0.19093,0.3437 -0.45821,0.6492 -0.22911,0.3054 -0.30548,0.3436 -0.11455,0.2673 -0.45821,0.4964 -0.30547,0.2291 -0.9546,0.2291 l -5.99492,0 0,-25.3543 q 0,-0.3436 0.22911,-0.5345 0.26728,-0.2291 0.57276,-0.2291 l 6.9877,0 q 0.26729,0 0.19092,0.3054 -0.0764,0.2673 -0.30547,0.611 -0.19092,0.3436 -0.45821,0.6491 -0.2291,0.3055 -0.30547,0.3437 -0.11456,0.2672 -0.45821,0.5345 -0.30548,0.2291 -0.95461,0.2291 l -2.1765,0 q -0.26729,0 -0.45821,0.191 -0.19092,0.1527 -0.19092,0.42 l 0,7.7896 4.04753,0 q 0.26729,0 0.19092,0.3054 -0.0382,0.2673 -0.26729,0.6492 -0.19092,0.3436 -0.45821,0.6491 -0.26729,0.3055 -0.34366,0.3437 -0.11455,0.3054 -0.45821,0.5345 -0.30547,0.2291 -0.9546,0.2291 l -1.10735,-0.038 q -0.26729,0 -0.45821,0.1909 -0.19092,0.1909 -0.19092,0.4582 l 0,9.0496 z"
           style="font-style:normal;font-variant:normal;font-weight:normal;font-stretch:normal;font-family:Ailerons;-inkscape-font-specification:Ailerons;fill:#ffffff;fill-opacity:1"
           id="path27233" />
      </g>
      <path
         inkscape:connector-curvature="0"
         id="path27235"
         d="M 682.0614,300.58448 706.51737,325.04 835.83918,454.36224 706.232,583.9692 l -24.45596,24.45553 34.54284,0 203.16519,0 5.90035,0 C 978.47556,555.33359 1033.4189,500.39019 1079.352,454.45715 1026.9917,400.91549 973.06718,349.05918 925.66912,300.58448 l -5.89925,0 -203.0704,0 z m 114.00109,23.2185 c 8.80384,0 15.9868,7.18318 15.9868,15.98734 0,8.80307 -7.18296,15.89134 -15.9868,15.89134 -8.80384,0 -15.89155,-7.08827 -15.89155,-15.89134 0,-8.80416 7.08771,-15.98734 15.89155,-15.98734 z m 38.25421,0 c 8.80372,0 15.98668,7.18318 15.98668,15.98734 0,8.80307 -7.18296,15.89134 -15.98668,15.89134 -8.80395,0 -15.89167,-7.08827 -15.89167,-15.89134 0,-8.80416 7.08772,-15.98734 15.89167,-15.98734 z m 38.25365,0 c 8.80417,0 15.98734,7.18318 15.98734,15.98734 0,8.80307 -7.18317,15.89134 -15.98734,15.89134 -8.80307,0 -15.89134,-7.08827 -15.89134,-15.89134 0,-8.80416 7.08827,-15.98734 15.89134,-15.98734 z m -76.50786,38.25464 c 8.80384,0 15.9868,7.18208 15.9868,15.98625 0,8.80416 -7.18296,15.89134 -15.9868,15.89134 -8.80384,0 -15.89155,-7.08718 -15.89155,-15.89134 0,-8.80417 7.08771,-15.98625 15.89155,-15.98625 z m 38.25421,0 c 8.80372,0 15.98668,7.18208 15.98668,15.98625 0,8.80416 -7.18296,15.89134 -15.98668,15.89134 -8.80395,0 -15.89167,-7.08718 -15.89167,-15.89134 0,-8.80417 7.08772,-15.98625 15.89167,-15.98625 z m 38.25365,0 c 8.80417,0 15.98734,7.18208 15.98734,15.98625 0,8.80416 -7.18317,15.89134 -15.98734,15.89134 -8.80307,0 -15.89134,-7.08718 -15.89134,-15.89134 0,-8.80417 7.08827,-15.98625 15.89134,-15.98625 z m -38.25365,38.25354 c 8.80372,0 15.98668,7.18318 15.98668,15.98734 0,8.80307 -7.18296,15.89134 -15.98668,15.89134 -8.80395,0 -15.89167,-7.08827 -15.89167,-15.89134 0,-8.80416 7.08772,-15.98734 15.89167,-15.98734 z m -38.25421,38.25464 c -8.80384,0 -15.89155,7.18208 -15.89155,15.98625 0,8.80416 7.08771,15.89134 15.89155,15.89134 8.80384,0 15.9868,-7.08718 15.9868,-15.89134 0,-8.80417 -7.18296,-15.98625 -15.9868,-15.98625 z m 76.50786,38.25354 c 8.80417,0 15.98734,7.18319 15.98734,15.98734 0,8.80307 -7.18317,15.89135 -15.98734,15.89135 -8.80307,0 -15.89134,-7.08828 -15.89134,-15.89135 0,-8.80415 7.08827,-15.98734 15.89134,-15.98734 z m -38.25365,38.25465 c 8.80372,0 15.98668,7.18208 15.98668,15.98624 0,8.80417 -7.18296,15.89134 -15.98668,15.89134 -8.80395,0 -15.89167,-7.08717 -15.89167,-15.89134 0,-8.80416 7.08772,-15.98624 15.89167,-15.98624 z m -38.25421,38.25354 c 8.80384,0 15.9868,7.18318 15.9868,15.98734 0,8.80307 -7.18296,15.89134 -15.9868,15.89134 -8.80384,0 -15.89155,-7.08827 -15.89155,-15.89134 0,-8.80416 7.08771,-15.98734 15.89155,-15.98734 z"
         style="color:#000000;font-style:normal;font-variant:normal;font-weight:normal;font-stretch:normal;font-size:medium;line-height:normal;font-family:Sans;-inkscape-font-specification:Sans;text-indent:0;text-align:start;text-decoration:none;text-decoration-line:none;letter-spacing:normal;word-spacing:normal;text-transform:none;direction:ltr;block-progression:tb;writing-mode:lr-tb;baseline-shift:baseline;text-anchor:start;display:inline;overflow:visible;visibility:visible;fill:#c93e31;fill-opacity:1;fill-rule:nonzero;stroke:none;stroke-width:9.40495491;marker:none;enable-background:accumulate"
         sodipodi:nodetypes="cccccccccccccsssssssssssssssssssssssssssssssssssssssssssssssssssssss" />
    </g>
  </g>
</svg>
